<svg width="20" height="20" viewBox="0 0 20 20" xmlns="http://www.w3.org/2000/svg">
    <path fill-rule="evenodd" clip-rule="evenodd"
          d="M11.768 6.19721L15.1667 2.74109L16.4072 4.00261L3.07141 17.564L1.83087 16.3024L6.51896 11.5351C6.43926 11.2291 6.40346 10.9067 6.40346 10.5844C6.40346 9.69232 6.66662 8.97869 7.10522 8.35426C5.87714 8.80028 4.64905 9.51391 3.68413 10.4952L1.22796 12.9929L-0.00012207 11.744L2.45605 9.2463C4.95155 6.62929 8.48699 5.63382 11.768 6.19721ZM8.33338 13.7065C8.8597 13.9741 9.38603 14.1525 10.0001 14.1525C11.9299 14.1525 13.5966 12.5468 13.5966 10.4951C13.5966 9.87069 13.4212 9.33547 13.158 8.80025L8.33338 13.7065ZM14.7368 7.19456C15.7894 7.72978 16.6666 8.35421 17.5439 9.24625L20 11.744L18.7719 12.9928L16.3158 10.4951C15.4386 9.60306 14.4736 8.97864 13.421 8.53262L14.7368 7.19456Z"/>
</svg>
